<svg width="2970" height="772" viewBox="0 0 2970 772" fill="none" xmlns="http://www.w3.org/2000/svg">
<g clip-path="url(#clip0_22_5)">
<path d="M1697.02 742.347V218.523H1746.82V742.347H1697.02ZM1722.37 0C1761.21 0.712382 1761.47 69.2347 1722.37 70.0361C1683.39 68.923 1683.66 0.979526 1722.37 0Z" fill="#561730"></path>
<path d="M3.78619 742.347V218.523H53.5846V742.347H3.78619ZM29.1308 0C67.9718 0.712382 68.1945 69.2347 29.1308 70.0361C-9.84379 68.923 -9.57654 0.979526 29.1308 0Z" fill="#561730"></path>
<path d="M1547.23 383.217C1553.06 235.398 1370.17 238.47 1279.44 303.43C1301.89 351.472 1287.14 685.178 1291.11 742.347H1235.87C1231.73 699.604 1246.7 355.568 1225.27 324.446C1181.31 232.504 1053.34 252.539 980.869 298.176V742.347H920.291V217.321H980.869V253.029C1061.8 196.484 1194.98 184.507 1261.4 266.698C1342.38 204.676 1480.95 178.63 1559.96 252.005C1640.76 323.11 1590.16 647.333 1603.53 742.391H1547.23V383.262V383.217Z" fill="#561730"></path>
<path d="M2947.95 207.837V260.108L2657.27 687.894L2970 688.963V742.302H2583.82V688.963L2872.41 261.177L2593.26 260.108V207.837H2947.95Z" fill="#561730"></path>
<path d="M204.272 590.164C196.788 740.477 379.858 741.991 472.016 672.934C449.567 623.023 464.31 276.983 460.346 217.677H515.579C519.721 261.934 504.755 618.749 526.18 651.118C568.718 745.508 698.203 726.274 770.584 678.366V217.677H831.162V762.205H770.584V725.161C690.096 784.022 555.31 795.731 490.056 711.002C396.472 789.142 202.401 808.688 158.526 669.595C137.681 642.391 151.711 46.5721 147.881 -0.0444336H204.182V590.12L204.272 590.164Z" fill="#561730"></path>
<path d="M1895.06 590.164C1886.02 736.737 2061.2 744.083 2151.18 672.934C2129.71 622.889 2143.83 276.894 2140 217.677H2192.87C2196.83 261.89 2182.49 618.66 2203.02 651.118C2242.04 744.351 2367.7 726.942 2436.78 678.366V217.677H2494.69V762.205H2436.78V725.161C2360.3 784.333 2229.53 795.108 2168.46 711.002C2079.02 790.255 1890.92 806.729 1851.36 669.595C1831.41 642.435 1844.81 46.5275 1841.16 0H1895.01V590.164H1895.06Z" fill="#561730"></path>
</g>
<defs>
<clipPath id="clip0_22_5">
<rect width="2970" height="772" fill="white"></rect>
</clipPath>
</defs>
</svg>